<?xml version="1.0" standalone="no"?>
<!DOCTYPE svg PUBLIC "-//W3C//DTD SVG 20010904//EN"
 "http://www.w3.org/TR/2001/REC-SVG-20010904/DTD/svg10.dtd">
<svg version="1.0" xmlns="http://www.w3.org/2000/svg"
 width="160.000000pt" height="160.000000pt" viewBox="0 0 160.000000 160.000000"
 preserveAspectRatio="xMidYMid meet">
<metadata>
Created by potrace 1.11, written by Peter Selinger 2001-2013
</metadata>
<g transform="translate(0.000000,160.000000) scale(0.100000,-0.100000)"
fill="#000000" stroke="none">
<path d="M787 1544 c-3 -3 -15 -7 -28 -9 -13 -3 -33 -7 -44 -9 -36 -8 -169
-35 -195 -40 -14 -3 -36 -8 -50 -11 -14 -3 -38 -8 -55 -11 -16 -2 -46 -9 -65
-14 -19 -5 -50 -12 -67 -15 -18 -3 -54 -13 -80 -23 -27 -10 -55 -18 -63 -17
-17 0 -27 -42 -24 -109 2 -46 6 -52 77 -125 95 -97 98 -119 17 -137 -34 -8
-59 -9 -66 -3 -20 17 -39 -21 -40 -85 -2 -58 2 -68 73 -206 42 -80 79 -149 83
-155 4 -5 36 -64 70 -130 163 -309 180 -336 207 -313 7 6 42 12 76 14 57 3
104 9 117 14 3 1 8 2 13 1 4 -1 28 4 53 9 25 6 64 13 87 16 23 4 49 7 57 8 17
3 95 16 125 22 23 5 117 21 159 28 16 3 50 8 75 12 89 13 108 29 76 64 -15 16
-20 57 -16 122 0 17 8 29 21 33 11 3 20 10 20 15 0 5 -25 34 -55 65 -54 56
-69 83 -40 72 29 -12 24 14 -24 128 -32 76 -45 118 -38 120 7 2 50 14 97 25
150 38 166 50 110 83 -47 28 -61 46 -55 75 13 76 17 82 46 89 16 5 30 12 32
17 2 7 -170 114 -219 135 -11 5 -51 28 -88 50 -36 23 -68 41 -70 41 -1 0 -59
32 -127 71 -119 68 -172 92 -182 83z"/>
</g>
</svg>
