<?xml version="1.0" encoding="UTF-8" standalone="no"?><svg xmlns="http://www.w3.org/2000/svg" xmlns:xlink="http://www.w3.org/1999/xlink" contentScriptType="application/ecmascript" contentStyleType="text/css" height="303px" preserveAspectRatio="none" style="width:228px;height:303px;background:#FFFFFF;" version="1.1" viewBox="0 0 228 303" width="228px" zoomAndPan="magnify"><defs><filter height="300%" id="f1ia4cb0eg5du3" width="300%" x="-1" y="-1"><feGaussianBlur result="blurOut" stdDeviation="2.0"/><feColorMatrix in="blurOut" result="blurOut2" type="matrix" values="0 0 0 0 0 0 0 0 0 0 0 0 0 0 0 0 0 0 .4 0"/><feOffset dx="4.0" dy="4.0" in="blurOut2" result="blurOut3"/><feBlend in="SourceGraphic" in2="blurOut3" mode="normal"/></filter></defs><g><!--MD5=[b203f6b098b8dffe494a95d9c500f8e2]
class X--><rect codeLine="1" fill="#FEFECE" filter="url(#f1ia4cb0eg5du3)" height="48" id="X" style="stroke:#A80036;stroke-width:1.5;" width="40" x="97.5" y="132"/><ellipse cx="112.5" cy="148" fill="#B4A7E5" rx="11" ry="11" style="stroke:#A80036;stroke-width:1.0;"/><path d="M108.9277,144.2651 L108.9277,142.1069 L116.3071,142.1069 L116.3071,144.2651 L113.8418,144.2651 L113.8418,152.3418 L116.3071,152.3418 L116.3071,154.5 L108.9277,154.5 L108.9277,152.3418 L111.3931,152.3418 L111.3931,144.2651 Z " fill="#000000"/><text fill="#000000" font-family="sans-serif" font-size="12" font-style="italic" lengthAdjust="spacing" textLength="8" x="126.5" y="152.5352">X</text><line style="stroke:#A80036;stroke-width:1.5;" x1="98.5" x2="136.5" y1="164" y2="164"/><line style="stroke:#A80036;stroke-width:1.5;" x1="98.5" x2="136.5" y1="172" y2="172"/><!--MD5=[6d5272363bca5e3c1d2e824c31d648e0]
class CompositeX--><rect codeLine="2" fill="#FEFECE" filter="url(#f1ia4cb0eg5du3)" height="48" id="CompositeX" style="stroke:#A80036;stroke-width:1.5;" width="101" x="7" y="241"/><ellipse cx="22" cy="257" fill="#ADD1B2" rx="11" ry="11" style="stroke:#A80036;stroke-width:1.0;"/><path d="M24.4731,263.1431 Q23.8921,263.4419 23.2529,263.5913 Q22.6138,263.7407 21.9082,263.7407 Q19.4014,263.7407 18.0815,262.0889 Q16.7617,260.437 16.7617,257.3159 Q16.7617,254.1865 18.0815,252.5347 Q19.4014,250.8828 21.9082,250.8828 Q22.6138,250.8828 23.2612,251.0322 Q23.9087,251.1816 24.4731,251.4805 L24.4731,254.2031 Q23.8423,253.6221 23.2488,253.3523 Q22.6553,253.0825 22.0244,253.0825 Q20.6797,253.0825 19.9949,254.1492 Q19.3101,255.2158 19.3101,257.3159 Q19.3101,259.4077 19.9949,260.4744 Q20.6797,261.541 22.0244,261.541 Q22.6553,261.541 23.2488,261.2712 Q23.8423,261.0015 24.4731,260.4204 Z " fill="#000000"/><text fill="#000000" font-family="sans-serif" font-size="12" lengthAdjust="spacing" textLength="69" x="36" y="261.5352">CompositeX</text><line style="stroke:#A80036;stroke-width:1.5;" x1="8" x2="107" y1="273" y2="273"/><line style="stroke:#A80036;stroke-width:1.5;" x1="8" x2="107" y1="281" y2="281"/><!--MD5=[ed6624c6556d5e7b1bd23032162d20b7]
class Client--><rect fill="#FEFECE" filter="url(#f1ia4cb0eg5du3)" height="48" id="Client" style="stroke:#A80036;stroke-width:1.5;" width="64" x="85.5" y="7"/><ellipse cx="100.5" cy="23" fill="#ADD1B2" rx="11" ry="11" style="stroke:#A80036;stroke-width:1.0;"/><path d="M102.9731,29.1431 Q102.3921,29.4419 101.7529,29.5913 Q101.1138,29.7407 100.4082,29.7407 Q97.9014,29.7407 96.5815,28.0889 Q95.2617,26.437 95.2617,23.3159 Q95.2617,20.1865 96.5815,18.5347 Q97.9014,16.8828 100.4082,16.8828 Q101.1138,16.8828 101.7612,17.0322 Q102.4087,17.1816 102.9731,17.4805 L102.9731,20.2031 Q102.3423,19.6221 101.7488,19.3523 Q101.1553,19.0825 100.5244,19.0825 Q99.1797,19.0825 98.4949,20.1492 Q97.8101,21.2158 97.8101,23.3159 Q97.8101,25.4077 98.4949,26.4744 Q99.1797,27.541 100.5244,27.541 Q101.1553,27.541 101.7488,27.2712 Q102.3423,27.0015 102.9731,26.4204 Z " fill="#000000"/><text fill="#000000" font-family="sans-serif" font-size="12" lengthAdjust="spacing" textLength="32" x="114.5" y="27.5352">Client</text><line style="stroke:#A80036;stroke-width:1.5;" x1="86.5" x2="148.5" y1="39" y2="39"/><line style="stroke:#A80036;stroke-width:1.5;" x1="86.5" x2="148.5" y1="47" y2="47"/><!--MD5=[b8b0d3413dc01212e69aac246c848b9c]
class SomeX--><rect fill="#FEFECE" filter="url(#f1ia4cb0eg5du3)" height="48" id="SomeX" style="stroke:#A80036;stroke-width:1.5;" width="71" x="143" y="241"/><ellipse cx="158" cy="257" fill="#ADD1B2" rx="11" ry="11" style="stroke:#A80036;stroke-width:1.0;"/><path d="M160.4731,263.1431 Q159.8921,263.4419 159.2529,263.5913 Q158.6138,263.7407 157.9082,263.7407 Q155.4014,263.7407 154.0815,262.0889 Q152.7617,260.437 152.7617,257.3159 Q152.7617,254.1865 154.0815,252.5347 Q155.4014,250.8828 157.9082,250.8828 Q158.6138,250.8828 159.2612,251.0322 Q159.9087,251.1816 160.4731,251.4805 L160.4731,254.2031 Q159.8423,253.6221 159.2488,253.3523 Q158.6553,253.0825 158.0244,253.0825 Q156.6797,253.0825 155.9949,254.1492 Q155.3101,255.2158 155.3101,257.3159 Q155.3101,259.4077 155.9949,260.4744 Q156.6797,261.541 158.0244,261.541 Q158.6553,261.541 159.2488,261.2712 Q159.8423,261.0015 160.4731,260.4204 Z " fill="#000000"/><text fill="#000000" font-family="sans-serif" font-size="12" lengthAdjust="spacing" textLength="39" x="172" y="261.5352">SomeX</text><line style="stroke:#A80036;stroke-width:1.5;" x1="144" x2="213" y1="273" y2="273"/><line style="stroke:#A80036;stroke-width:1.5;" x1="144" x2="213" y1="281" y2="281"/><!--MD5=[df6a2f6264c76d55c66f14ec4c8b0003]
link Client to X--><path codeLine="6" d="M117.5,55.14 C117.5,75.49 117.5,105.19 117.5,126.91 " fill="none" id="Client-to-X" style="stroke:#A80036;stroke-width:1.0;"/><polygon fill="#A80036" points="117.5,131.97,121.5,122.97,117.5,126.97,113.5,122.97,117.5,131.97" style="stroke:#A80036;stroke-width:1.0;"/><text fill="#000000" font-family="sans-serif" font-size="13" lengthAdjust="spacing" textLength="22" x="118.5" y="98.5684">use</text><!--MD5=[26ad907f4c625b58f2ea3e84ecd7035f]
reverse link X to CompositeX--><path codeLine="7" d="M94.44,198.13 C86.32,212.6 77.49,228.36 70.49,240.83 " fill="none" id="X-backto-CompositeX" style="stroke:#A80036;stroke-width:1.0;stroke-dasharray:7.0,7.0;"/><polygon fill="none" points="88.59,194.24,104.48,180.22,100.8,201.09,88.59,194.24" style="stroke:#A80036;stroke-width:1.0;"/><!--MD5=[8ba5b265be20188d8e43162dd30673e7]
reverse link X to SomeX--><path codeLine="8" d="M140.67,197.64 C149,212.25 158.1,228.22 165.29,240.83 " fill="none" id="X-backto-SomeX" style="stroke:#A80036;stroke-width:1.0;stroke-dasharray:7.0,7.0;"/><polygon fill="none" points="134.56,201.06,130.74,180.22,146.72,194.13,134.56,201.06" style="stroke:#A80036;stroke-width:1.0;"/><!--MD5=[f5b94441c9540c433cccc86fc07f383f]
@startuml
interface X
class CompositeX {

}

Client - -> X: use
CompositeX .up.|> X
SomeX .up.|> X
@enduml

PlantUML version 1.2021.10(Mon Aug 30 15:43:48 CEST 2021)
(GPL source distribution)
Java Runtime: OpenJDK Runtime Environment
JVM: OpenJDK 64-Bit Server VM
Default Encoding: UTF-8
Language: de
Country: DE
--></g></svg>