<?xml version="1.0" encoding="UTF-8" standalone="no"?><svg xmlns="http://www.w3.org/2000/svg" xmlns:xlink="http://www.w3.org/1999/xlink" contentScriptType="application/ecmascript" contentStyleType="text/css" height="317px" preserveAspectRatio="none" style="width:523px;height:317px;background:#FFFFFF;" version="1.1" viewBox="0 0 523 317" width="523px" zoomAndPan="magnify"><defs><filter height="300%" id="f1g2xovcmjt45a" width="300%" x="-1" y="-1"><feGaussianBlur result="blurOut" stdDeviation="2.0"/><feColorMatrix in="blurOut" result="blurOut2" type="matrix" values="0 0 0 0 0 0 0 0 0 0 0 0 0 0 0 0 0 0 .4 0"/><feOffset dx="4.0" dy="4.0" in="blurOut2" result="blurOut3"/><feBlend in="SourceGraphic" in2="blurOut3" mode="normal"/></filter></defs><g><!--MD5=[085076096658226fe7d3ac7a26d9b629]
class Listener--><rect codeLine="3" fill="#FEFECE" filter="url(#f1g2xovcmjt45a)" height="52.9551" id="Listener" style="stroke:#A80036;stroke-width:1.5;" width="77" x="161" y="116"/><ellipse cx="176" cy="132" fill="#B4A7E5" rx="11" ry="11" style="stroke:#A80036;stroke-width:1.0;"/><path d="M172.4277,128.2651 L172.4277,126.1069 L179.8071,126.1069 L179.8071,128.2651 L177.3418,128.2651 L177.3418,136.3418 L179.8071,136.3418 L179.8071,138.5 L172.4277,138.5 L172.4277,136.3418 L174.8931,136.3418 L174.8931,128.2651 Z " fill="#000000"/><text fill="#000000" font-family="sans-serif" font-size="12" font-style="italic" lengthAdjust="spacing" textLength="45" x="190" y="136.5352">Listener</text><line style="stroke:#A80036;stroke-width:1.5;" x1="162" x2="237" y1="148" y2="148"/><ellipse cx="172" cy="159" fill="#84BE84" rx="3" ry="3" style="stroke:#038048;stroke-width:1.0;"/><text fill="#000000" font-family="sans-serif" font-size="11" lengthAdjust="spacing" textLength="27" x="181" y="162.6348">run()</text><!--MD5=[39673f21905866e3952d1aa8b66a91a2]
class CompositeListener--><rect codeLine="6" fill="#FEFECE" filter="url(#f1g2xovcmjt45a)" height="73.9102" id="CompositeListener" style="stroke:#A80036;stroke-width:1.5;" width="193" x="7" y="230"/><ellipse cx="46.75" cy="246" fill="#ADD1B2" rx="11" ry="11" style="stroke:#A80036;stroke-width:1.0;"/><path d="M49.2231,252.1431 Q48.6421,252.4419 48.0029,252.5913 Q47.3638,252.7407 46.6582,252.7407 Q44.1514,252.7407 42.8315,251.0889 Q41.5117,249.437 41.5117,246.3159 Q41.5117,243.1865 42.8315,241.5347 Q44.1514,239.8828 46.6582,239.8828 Q47.3638,239.8828 48.0112,240.0322 Q48.6587,240.1816 49.2231,240.4805 L49.2231,243.2031 Q48.5923,242.6221 47.9988,242.3523 Q47.4053,242.0825 46.7744,242.0825 Q45.4297,242.0825 44.7449,243.1492 Q44.0601,244.2158 44.0601,246.3159 Q44.0601,248.4077 44.7449,249.4744 Q45.4297,250.541 46.7744,250.541 Q47.4053,250.541 47.9988,250.2712 Q48.5923,250.0015 49.2231,249.4204 Z " fill="#000000"/><text fill="#000000" font-family="sans-serif" font-size="12" lengthAdjust="spacing" textLength="106" x="66.25" y="250.5352">CompositeListener</text><line style="stroke:#A80036;stroke-width:1.5;" x1="8" x2="199" y1="262" y2="262"/><rect fill="none" height="6" style="stroke:#C82930;stroke-width:1.0;" width="6" x="15" y="270"/><text fill="#000000" font-family="sans-serif" font-size="11" lengthAdjust="spacing" textLength="167" x="27" y="276.6348">listeners: Collection&lt;Listener&gt;</text><line style="stroke:#A80036;stroke-width:1.5;" x1="8" x2="199" y1="282.9551" y2="282.9551"/><ellipse cx="18" cy="293.9551" fill="#84BE84" rx="3" ry="3" style="stroke:#038048;stroke-width:1.0;"/><text fill="#000000" font-family="sans-serif" font-size="11" lengthAdjust="spacing" textLength="27" x="27" y="297.5898">run()</text><!--MD5=[303c2f73034d89c55b053d2d3042ed5a]
class LoggingListener--><rect codeLine="10" fill="#FEFECE" filter="url(#f1g2xovcmjt45a)" height="52.9551" id="LoggingListener" style="stroke:#A80036;stroke-width:1.5;" width="121" x="235" y="240.5"/><ellipse cx="250" cy="256.5" fill="#ADD1B2" rx="11" ry="11" style="stroke:#A80036;stroke-width:1.0;"/><path d="M252.4731,262.6431 Q251.8921,262.9419 251.2529,263.0913 Q250.6138,263.2407 249.9082,263.2407 Q247.4014,263.2407 246.0815,261.5889 Q244.7617,259.937 244.7617,256.8159 Q244.7617,253.6865 246.0815,252.0347 Q247.4014,250.3828 249.9082,250.3828 Q250.6138,250.3828 251.2612,250.5322 Q251.9087,250.6816 252.4731,250.9805 L252.4731,253.7031 Q251.8423,253.1221 251.2488,252.8523 Q250.6553,252.5825 250.0244,252.5825 Q248.6797,252.5825 247.9949,253.6492 Q247.3101,254.7158 247.3101,256.8159 Q247.3101,258.9077 247.9949,259.9744 Q248.6797,261.041 250.0244,261.041 Q250.6553,261.041 251.2488,260.7712 Q251.8423,260.5015 252.4731,259.9204 Z " fill="#000000"/><text fill="#000000" font-family="sans-serif" font-size="12" lengthAdjust="spacing" textLength="89" x="264" y="261.0352">LoggingListener</text><line style="stroke:#A80036;stroke-width:1.5;" x1="236" x2="355" y1="272.5" y2="272.5"/><ellipse cx="246" cy="283.5" fill="#84BE84" rx="3" ry="3" style="stroke:#038048;stroke-width:1.0;"/><text fill="#000000" font-family="sans-serif" font-size="11" lengthAdjust="spacing" textLength="27" x="255" y="287.1348">run()</text><!--MD5=[f13b61d4c64104eba46bf43a99c7d8de]
class MetricsListener--><rect codeLine="13" fill="#FEFECE" filter="url(#f1g2xovcmjt45a)" height="52.9551" id="MetricsListener" style="stroke:#A80036;stroke-width:1.5;" width="118" x="391.5" y="240.5"/><ellipse cx="406.5" cy="256.5" fill="#ADD1B2" rx="11" ry="11" style="stroke:#A80036;stroke-width:1.0;"/><path d="M408.9731,262.6431 Q408.3921,262.9419 407.7529,263.0913 Q407.1138,263.2407 406.4082,263.2407 Q403.9014,263.2407 402.5815,261.5889 Q401.2617,259.937 401.2617,256.8159 Q401.2617,253.6865 402.5815,252.0347 Q403.9014,250.3828 406.4082,250.3828 Q407.1138,250.3828 407.7612,250.5322 Q408.4087,250.6816 408.9731,250.9805 L408.9731,253.7031 Q408.3423,253.1221 407.7488,252.8523 Q407.1553,252.5825 406.5244,252.5825 Q405.1797,252.5825 404.4949,253.6492 Q403.8101,254.7158 403.8101,256.8159 Q403.8101,258.9077 404.4949,259.9744 Q405.1797,261.041 406.5244,261.041 Q407.1553,261.041 407.7488,260.7712 Q408.3423,260.5015 408.9731,259.9204 Z " fill="#000000"/><text fill="#000000" font-family="sans-serif" font-size="12" lengthAdjust="spacing" textLength="86" x="420.5" y="261.0352">MetricsListener</text><line style="stroke:#A80036;stroke-width:1.5;" x1="392.5" x2="508.5" y1="272.5" y2="272.5"/><ellipse cx="402.5" cy="283.5" fill="#84BE84" rx="3" ry="3" style="stroke:#038048;stroke-width:1.0;"/><text fill="#000000" font-family="sans-serif" font-size="11" lengthAdjust="spacing" textLength="27" x="411.5" y="287.1348">run()</text><!--MD5=[e4ac4745f81aec2db60ad4ddae80b659]
class UserService--><rect fill="#FEFECE" filter="url(#f1g2xovcmjt45a)" height="32" id="UserService" style="stroke:#A80036;stroke-width:1.5;" width="98" x="150.5" y="7"/><ellipse cx="165.5" cy="23" fill="#ADD1B2" rx="11" ry="11" style="stroke:#A80036;stroke-width:1.0;"/><path d="M167.9731,29.1431 Q167.3921,29.4419 166.7529,29.5913 Q166.1138,29.7407 165.4082,29.7407 Q162.9014,29.7407 161.5815,28.0889 Q160.2617,26.437 160.2617,23.3159 Q160.2617,20.1865 161.5815,18.5347 Q162.9014,16.8828 165.4082,16.8828 Q166.1138,16.8828 166.7612,17.0322 Q167.4087,17.1816 167.9731,17.4805 L167.9731,20.2031 Q167.3423,19.6221 166.7488,19.3523 Q166.1553,19.0825 165.5244,19.0825 Q164.1797,19.0825 163.4949,20.1492 Q162.8101,21.2158 162.8101,23.3159 Q162.8101,25.4077 163.4949,26.4744 Q164.1797,27.541 165.5244,27.541 Q166.1553,27.541 166.7488,27.2712 Q167.3423,27.0015 167.9731,26.4204 Z " fill="#000000"/><text fill="#000000" font-family="sans-serif" font-size="12" lengthAdjust="spacing" textLength="66" x="179.5" y="27.5352">UserService</text><!--MD5=[355bd5da07b58e19761e5d3a0fbe59a6]
link UserService to Listener--><path codeLine="17" d="M199.5,39.36 C199.5,57.4 199.5,87.79 199.5,110.73 " fill="none" id="UserService-to-Listener" style="stroke:#A80036;stroke-width:1.0;"/><polygon fill="#A80036" points="199.5,115.8,203.5,106.8,199.5,110.8,195.5,106.8,199.5,115.8" style="stroke:#A80036;stroke-width:1.0;"/><text fill="#000000" font-family="sans-serif" font-size="13" lengthAdjust="spacing" textLength="22" x="200.5" y="82.5684">use</text><!--MD5=[dbb3a9a8748d4692fe68be5bde54de1d]
reverse link Listener to CompositeListener--><path codeLine="18" d="M159.86,179.15 C146.04,195.03 131.38,213.71 120.21,229.67 " fill="none" id="Listener-backto-CompositeListener" style="stroke:#A80036;stroke-width:1.0;"/><polygon fill="#FFFFFF" points="168.77,169.18,161.7905,170.993,160.7796,178.1329,167.7591,176.3199,168.77,169.18" style="stroke:#A80036;stroke-width:1.0;"/><!--MD5=[dbb3a9a8748d4692fe68be5bde54de1d]
reverse link Listener to CompositeListener--><path codeLine="19" d="M179.03,186.11 C168.8,200.31 156.36,215.99 144.43,229.67 " fill="none" id="Listener-backto-CompositeListener-1" style="stroke:#A80036;stroke-width:1.0;stroke-dasharray:7.0,7.0;"/><polygon fill="none" points="173.54,181.74,190.6,169.18,185.1,189.64,173.54,181.74" style="stroke:#A80036;stroke-width:1.0;"/><!--MD5=[594bc6dea8e5a7a97d1dee4521907990]
reverse link Listener to LoggingListener--><path codeLine="20" d="M232.07,185.06 C246.43,203.39 262.86,224.35 275.4,240.35 " fill="none" id="Listener-backto-LoggingListener" style="stroke:#A80036;stroke-width:1.0;stroke-dasharray:7.0,7.0;"/><polygon fill="none" points="226.45,189.24,219.62,169.18,237.47,180.6,226.45,189.24" style="stroke:#A80036;stroke-width:1.0;"/><!--MD5=[18497766eb54347b4e428d1f09d13773]
reverse link Listener to MetricsListener--><path codeLine="21" d="M256.21,171.18 C298.67,191.9 356.33,220.04 397.79,240.28 " fill="none" id="Listener-backto-MetricsListener" style="stroke:#A80036;stroke-width:1.0;stroke-dasharray:7.0,7.0;"/><polygon fill="none" points="253.07,177.43,238.17,162.37,259.21,164.85,253.07,177.43" style="stroke:#A80036;stroke-width:1.0;"/><!--MD5=[e5e9b21eb5ebfbc5aeef041b9c38c80a]
@startuml
hide empty members

interface Listener {
  +run()
}
class CompositeListener {
  -listeners: Collection<Listener>
  +run()
}
class LoggingListener {
  +run()
}
class MetricsListener {
  +run()
}

UserService - -> Listener: use
Listener o- - CompositeListener
CompositeListener .up.|> Listener
LoggingListener .up.|> Listener
MetricsListener .up.|> Listener
@enduml

PlantUML version 1.2021.10(Mon Aug 30 15:43:48 CEST 2021)
(GPL source distribution)
Java Runtime: OpenJDK Runtime Environment
JVM: OpenJDK 64-Bit Server VM
Default Encoding: UTF-8
Language: de
Country: DE
--></g></svg>