<?xml version="1.0" encoding="UTF-8" standalone="no"?><svg xmlns="http://www.w3.org/2000/svg" xmlns:xlink="http://www.w3.org/1999/xlink" contentScriptType="application/ecmascript" contentStyleType="text/css" height="177px" preserveAspectRatio="none" style="width:228px;height:177px;background:#FFFFFF;" version="1.1" viewBox="0 0 228 177" width="228px" zoomAndPan="magnify"><defs><filter height="300%" id="f1bu8x5waqpv6c" width="300%" x="-1" y="-1"><feGaussianBlur result="blurOut" stdDeviation="2.0"/><feColorMatrix in="blurOut" result="blurOut2" type="matrix" values="0 0 0 0 0 0 0 0 0 0 0 0 0 0 0 0 0 0 .4 0"/><feOffset dx="4.0" dy="4.0" in="blurOut2" result="blurOut3"/><feBlend in="SourceGraphic" in2="blurOut3" mode="normal"/></filter></defs><g><!--MD5=[b203f6b098b8dffe494a95d9c500f8e2]
class X--><rect codeLine="1" fill="#FEFECE" filter="url(#f1bu8x5waqpv6c)" height="48" id="X" style="stroke:#A80036;stroke-width:1.5;" width="40" x="97.5" y="115"/><ellipse cx="112.5" cy="131" fill="#B4A7E5" rx="11" ry="11" style="stroke:#A80036;stroke-width:1.0;"/><path d="M108.9277,127.2651 L108.9277,125.1069 L116.3071,125.1069 L116.3071,127.2651 L113.8418,127.2651 L113.8418,135.3418 L116.3071,135.3418 L116.3071,137.5 L108.9277,137.5 L108.9277,135.3418 L111.3931,135.3418 L111.3931,127.2651 Z " fill="#000000"/><text fill="#000000" font-family="sans-serif" font-size="12" font-style="italic" lengthAdjust="spacing" textLength="8" x="126.5" y="135.5352">X</text><line style="stroke:#A80036;stroke-width:1.5;" x1="98.5" x2="136.5" y1="147" y2="147"/><line style="stroke:#A80036;stroke-width:1.5;" x1="98.5" x2="136.5" y1="155" y2="155"/><!--MD5=[6d5272363bca5e3c1d2e824c31d648e0]
class CompositeX--><rect codeLine="2" fill="#FEFECE" filter="url(#f1bu8x5waqpv6c)" height="48" id="CompositeX" style="stroke:#A80036;stroke-width:1.5;" width="101" x="7" y="7"/><ellipse cx="22" cy="23" fill="#ADD1B2" rx="11" ry="11" style="stroke:#A80036;stroke-width:1.0;"/><path d="M24.4731,29.1431 Q23.8921,29.4419 23.2529,29.5913 Q22.6138,29.7407 21.9082,29.7407 Q19.4014,29.7407 18.0815,28.0889 Q16.7617,26.437 16.7617,23.3159 Q16.7617,20.1865 18.0815,18.5347 Q19.4014,16.8828 21.9082,16.8828 Q22.6138,16.8828 23.2612,17.0322 Q23.9087,17.1816 24.4731,17.4805 L24.4731,20.2031 Q23.8423,19.6221 23.2488,19.3523 Q22.6553,19.0825 22.0244,19.0825 Q20.6797,19.0825 19.9949,20.1492 Q19.3101,21.2158 19.3101,23.3159 Q19.3101,25.4077 19.9949,26.4744 Q20.6797,27.541 22.0244,27.541 Q22.6553,27.541 23.2488,27.2712 Q23.8423,27.0015 24.4731,26.4204 Z " fill="#000000"/><text fill="#000000" font-family="sans-serif" font-size="12" lengthAdjust="spacing" textLength="69" x="36" y="27.5352">CompositeX</text><line style="stroke:#A80036;stroke-width:1.5;" x1="8" x2="107" y1="39" y2="39"/><line style="stroke:#A80036;stroke-width:1.5;" x1="8" x2="107" y1="47" y2="47"/><!--MD5=[b8b0d3413dc01212e69aac246c848b9c]
class SomeX--><rect fill="#FEFECE" filter="url(#f1bu8x5waqpv6c)" height="48" id="SomeX" style="stroke:#A80036;stroke-width:1.5;" width="71" x="143" y="7"/><ellipse cx="158" cy="23" fill="#ADD1B2" rx="11" ry="11" style="stroke:#A80036;stroke-width:1.0;"/><path d="M160.4731,29.1431 Q159.8921,29.4419 159.2529,29.5913 Q158.6138,29.7407 157.9082,29.7407 Q155.4014,29.7407 154.0815,28.0889 Q152.7617,26.437 152.7617,23.3159 Q152.7617,20.1865 154.0815,18.5347 Q155.4014,16.8828 157.9082,16.8828 Q158.6138,16.8828 159.2612,17.0322 Q159.9087,17.1816 160.4731,17.4805 L160.4731,20.2031 Q159.8423,19.6221 159.2488,19.3523 Q158.6553,19.0825 158.0244,19.0825 Q156.6797,19.0825 155.9949,20.1492 Q155.3101,21.2158 155.3101,23.3159 Q155.3101,25.4077 155.9949,26.4744 Q156.6797,27.541 158.0244,27.541 Q158.6553,27.541 159.2488,27.2712 Q159.8423,27.0015 160.4731,26.4204 Z " fill="#000000"/><text fill="#000000" font-family="sans-serif" font-size="12" lengthAdjust="spacing" textLength="39" x="172" y="27.5352">SomeX</text><line style="stroke:#A80036;stroke-width:1.5;" x1="144" x2="213" y1="39" y2="39"/><line style="stroke:#A80036;stroke-width:1.5;" x1="144" x2="213" y1="47" y2="47"/><!--MD5=[2080e67d81e142070cb8d296f99b6b3e]
link CompositeX to X--><path codeLine="4" d="M70.52,55 C77.47,67.28 86.23,82.76 94.3,97.01 " fill="none" id="CompositeX-to-X" style="stroke:#A80036;stroke-width:1.0;"/><polygon fill="none" points="100.54,93.83,104.3,114.68,88.36,100.72,100.54,93.83" style="stroke:#A80036;stroke-width:1.0;"/><!--MD5=[51aba245a1f5fd8baa045df7130ca473]
link SomeX to X--><path codeLine="5" d="M165.26,55 C158.2,67.28 149.29,82.76 141.09,97.01 " fill="none" id="SomeX-to-X" style="stroke:#A80036;stroke-width:1.0;"/><polygon fill="none" points="146.96,100.84,130.92,114.68,134.83,93.85,146.96,100.84" style="stroke:#A80036;stroke-width:1.0;"/><!--MD5=[d0a202b33cd4f7c5d212f4ea604a059e]
@startuml
interface X
class CompositeX

CompositeX - -|> X
SomeX - -|> X
@enduml

PlantUML version 1.2021.10(Mon Aug 30 15:43:48 CEST 2021)
(GPL source distribution)
Java Runtime: OpenJDK Runtime Environment
JVM: OpenJDK 64-Bit Server VM
Default Encoding: UTF-8
Language: de
Country: DE
--></g></svg>