<?xml version="1.0" encoding="UTF-8" standalone="no"?><svg xmlns="http://www.w3.org/2000/svg" xmlns:xlink="http://www.w3.org/1999/xlink" contentScriptType="application/ecmascript" contentStyleType="text/css" height="315px" preserveAspectRatio="none" style="width:272px;height:315px;background:#FFFFFF;" version="1.1" viewBox="0 0 272 315" width="272px" zoomAndPan="magnify"><defs><filter height="300%" id="f16uuyrpdxgsaw" width="300%" x="-1" y="-1"><feGaussianBlur result="blurOut" stdDeviation="2.0"/><feColorMatrix in="blurOut" result="blurOut2" type="matrix" values="0 0 0 0 0 0 0 0 0 0 0 0 0 0 0 0 0 0 .4 0"/><feOffset dx="4.0" dy="4.0" in="blurOut2" result="blurOut3"/><feBlend in="SourceGraphic" in2="blurOut3" mode="normal"/></filter></defs><g><!--MD5=[b203f6b098b8dffe494a95d9c500f8e2]
class X--><rect codeLine="1" fill="#FEFECE" filter="url(#f16uuyrpdxgsaw)" height="48" id="X" style="stroke:#A80036;stroke-width:1.5;" width="40" x="59.5" y="132"/><ellipse cx="74.5" cy="148" fill="#B4A7E5" rx="11" ry="11" style="stroke:#A80036;stroke-width:1.0;"/><path d="M70.9277,144.2651 L70.9277,142.1069 L78.3071,142.1069 L78.3071,144.2651 L75.8418,144.2651 L75.8418,152.3418 L78.3071,152.3418 L78.3071,154.5 L70.9277,154.5 L70.9277,152.3418 L73.3931,152.3418 L73.3931,144.2651 Z " fill="#000000"/><text fill="#000000" font-family="sans-serif" font-size="12" font-style="italic" lengthAdjust="spacing" textLength="8" x="88.5" y="152.5352">X</text><line style="stroke:#A80036;stroke-width:1.5;" x1="60.5" x2="98.5" y1="164" y2="164"/><line style="stroke:#A80036;stroke-width:1.5;" x1="60.5" x2="98.5" y1="172" y2="172"/><!--MD5=[6d5272363bca5e3c1d2e824c31d648e0]
class CompositeX--><rect codeLine="2" fill="#FEFECE" filter="url(#f16uuyrpdxgsaw)" height="60.9551" id="CompositeX" style="stroke:#A80036;stroke-width:1.5;" width="145" x="7" y="241"/><ellipse cx="41.8" cy="257" fill="#ADD1B2" rx="11" ry="11" style="stroke:#A80036;stroke-width:1.0;"/><path d="M44.2731,263.1431 Q43.6921,263.4419 43.0529,263.5913 Q42.4138,263.7407 41.7082,263.7407 Q39.2014,263.7407 37.8815,262.0889 Q36.5617,260.437 36.5617,257.3159 Q36.5617,254.1865 37.8815,252.5347 Q39.2014,250.8828 41.7082,250.8828 Q42.4138,250.8828 43.0612,251.0322 Q43.7087,251.1816 44.2731,251.4805 L44.2731,254.2031 Q43.6423,253.6221 43.0488,253.3523 Q42.4553,253.0825 41.8244,253.0825 Q40.4797,253.0825 39.7949,254.1492 Q39.1101,255.2158 39.1101,257.3159 Q39.1101,259.4077 39.7949,260.4744 Q40.4797,261.541 41.8244,261.541 Q42.4553,261.541 43.0488,261.2712 Q43.6423,261.0015 44.2731,260.4204 Z " fill="#000000"/><text fill="#000000" font-family="sans-serif" font-size="12" lengthAdjust="spacing" textLength="69" x="60.2" y="261.5352">CompositeX</text><line style="stroke:#A80036;stroke-width:1.5;" x1="8" x2="151" y1="273" y2="273"/><text fill="#000000" font-family="sans-serif" font-size="11" lengthAdjust="spacing" textLength="133" x="13" y="287.6348">elements: Collection&lt;X&gt;</text><line style="stroke:#A80036;stroke-width:1.5;" x1="8" x2="151" y1="293.9551" y2="293.9551"/><!--MD5=[ed6624c6556d5e7b1bd23032162d20b7]
class Client--><rect fill="#FEFECE" filter="url(#f16uuyrpdxgsaw)" height="48" id="Client" style="stroke:#A80036;stroke-width:1.5;" width="64" x="47.5" y="7"/><ellipse cx="62.5" cy="23" fill="#ADD1B2" rx="11" ry="11" style="stroke:#A80036;stroke-width:1.0;"/><path d="M64.9731,29.1431 Q64.3921,29.4419 63.7529,29.5913 Q63.1138,29.7407 62.4082,29.7407 Q59.9014,29.7407 58.5815,28.0889 Q57.2617,26.437 57.2617,23.3159 Q57.2617,20.1865 58.5815,18.5347 Q59.9014,16.8828 62.4082,16.8828 Q63.1138,16.8828 63.7612,17.0322 Q64.4087,17.1816 64.9731,17.4805 L64.9731,20.2031 Q64.3423,19.6221 63.7488,19.3523 Q63.1553,19.0825 62.5244,19.0825 Q61.1797,19.0825 60.4949,20.1492 Q59.8101,21.2158 59.8101,23.3159 Q59.8101,25.4077 60.4949,26.4744 Q61.1797,27.541 62.5244,27.541 Q63.1553,27.541 63.7488,27.2712 Q64.3423,27.0015 64.9731,26.4204 Z " fill="#000000"/><text fill="#000000" font-family="sans-serif" font-size="12" lengthAdjust="spacing" textLength="32" x="76.5" y="27.5352">Client</text><line style="stroke:#A80036;stroke-width:1.5;" x1="48.5" x2="110.5" y1="39" y2="39"/><line style="stroke:#A80036;stroke-width:1.5;" x1="48.5" x2="110.5" y1="47" y2="47"/><!--MD5=[b8b0d3413dc01212e69aac246c848b9c]
class SomeX--><rect fill="#FEFECE" filter="url(#f16uuyrpdxgsaw)" height="48" id="SomeX" style="stroke:#A80036;stroke-width:1.5;" width="71" x="187" y="247.5"/><ellipse cx="202" cy="263.5" fill="#ADD1B2" rx="11" ry="11" style="stroke:#A80036;stroke-width:1.0;"/><path d="M204.4731,269.6431 Q203.8921,269.9419 203.2529,270.0913 Q202.6138,270.2407 201.9082,270.2407 Q199.4014,270.2407 198.0815,268.5889 Q196.7617,266.937 196.7617,263.8159 Q196.7617,260.6865 198.0815,259.0347 Q199.4014,257.3828 201.9082,257.3828 Q202.6138,257.3828 203.2612,257.5322 Q203.9087,257.6816 204.4731,257.9805 L204.4731,260.7031 Q203.8423,260.1221 203.2488,259.8523 Q202.6553,259.5825 202.0244,259.5825 Q200.6797,259.5825 199.9949,260.6492 Q199.3101,261.7158 199.3101,263.8159 Q199.3101,265.9077 199.9949,266.9744 Q200.6797,268.041 202.0244,268.041 Q202.6553,268.041 203.2488,267.7712 Q203.8423,267.5015 204.4731,266.9204 Z " fill="#000000"/><text fill="#000000" font-family="sans-serif" font-size="12" lengthAdjust="spacing" textLength="39" x="216" y="268.0352">SomeX</text><line style="stroke:#A80036;stroke-width:1.5;" x1="188" x2="257" y1="279.5" y2="279.5"/><line style="stroke:#A80036;stroke-width:1.5;" x1="188" x2="257" y1="287.5" y2="287.5"/><!--MD5=[df6a2f6264c76d55c66f14ec4c8b0003]
link Client to X--><path codeLine="6" d="M79.5,55.14 C79.5,75.49 79.5,105.19 79.5,126.91 " fill="none" id="Client-to-X" style="stroke:#A80036;stroke-width:1.0;"/><polygon fill="#A80036" points="79.5,131.97,83.5,122.97,79.5,126.97,75.5,122.97,79.5,131.97" style="stroke:#A80036;stroke-width:1.0;"/><text fill="#000000" font-family="sans-serif" font-size="13" lengthAdjust="spacing" textLength="22" x="80.5" y="98.5684">use</text><!--MD5=[26ad907f4c625b58f2ea3e84ecd7035f]
reverse link X to CompositeX--><path codeLine="7" d="M67.08,200.17 C66.41,213.73 66.76,228.4 68.14,240.81 " fill="none" id="X-backto-CompositeX" style="stroke:#A80036;stroke-width:1.0;stroke-dasharray:7.0,7.0;"/><polygon fill="none" points="60.11,199.49,68.98,180.24,74.05,200.82,60.11,199.49" style="stroke:#A80036;stroke-width:1.0;"/><!--MD5=[26ad907f4c625b58f2ea3e84ecd7035f]
reverse link X to CompositeX--><path codeLine="8" d="M92.2,193.49 C93.46,208.78 93.23,226.33 91.53,240.81 " fill="none" id="X-backto-CompositeX-1" style="stroke:#A80036;stroke-width:1.0;"/><polygon fill="#FFFFFF" points="90.64,180.24,87.3738,186.669,92.052,192.1566,95.3182,185.7276,90.64,180.24" style="stroke:#A80036;stroke-width:1.0;"/><!--MD5=[8ba5b265be20188d8e43162dd30673e7]
reverse link X to SomeX--><path codeLine="9" d="M115.39,185.49 C139.54,204.65 170.95,229.59 193.51,247.49 " fill="none" id="X-backto-SomeX" style="stroke:#A80036;stroke-width:1.0;stroke-dasharray:7.0,7.0;"/><polygon fill="none" points="111,190.94,99.69,173.02,119.7,179.97,111,190.94" style="stroke:#A80036;stroke-width:1.0;"/><!--MD5=[634297d5e920603065cb781f64c14486]
@startuml
interface X
class CompositeX {
  elements: Collection<X>
}

Client - -> X: use
CompositeX .up.|> X
CompositeX -up-o X
SomeX .up.|> X
@enduml

PlantUML version 1.2021.10(Mon Aug 30 15:43:48 CEST 2021)
(GPL source distribution)
Java Runtime: OpenJDK Runtime Environment
JVM: OpenJDK 64-Bit Server VM
Default Encoding: UTF-8
Language: de
Country: DE
--></g></svg>