<?xml version="1.0" encoding="UTF-8" standalone="no"?><svg xmlns="http://www.w3.org/2000/svg" xmlns:xlink="http://www.w3.org/1999/xlink" contentScriptType="application/ecmascript" contentStyleType="text/css" height="315px" preserveAspectRatio="none" style="width:286px;height:315px;background:#FFFFFF;" version="1.1" viewBox="0 0 286 315" width="286px" zoomAndPan="magnify"><defs><filter height="300%" id="f1ed7ducv2vekr" width="300%" x="-1" y="-1"><feGaussianBlur result="blurOut" stdDeviation="2.0"/><feColorMatrix in="blurOut" result="blurOut2" type="matrix" values="0 0 0 0 0 0 0 0 0 0 0 0 0 0 0 0 0 0 .4 0"/><feOffset dx="4.0" dy="4.0" in="blurOut2" result="blurOut3"/><feBlend in="SourceGraphic" in2="blurOut3" mode="normal"/></filter></defs><g><!--MD5=[b203f6b098b8dffe494a95d9c500f8e2]
class X--><rect codeLine="1" fill="#FEFECE" filter="url(#f1ed7ducv2vekr)" height="48" id="X" style="stroke:#A80036;stroke-width:1.5;" width="40" x="66.5" y="132"/><ellipse cx="81.5" cy="148" fill="#B4A7E5" rx="11" ry="11" style="stroke:#A80036;stroke-width:1.0;"/><path d="M77.9277,144.2651 L77.9277,142.1069 L85.3071,142.1069 L85.3071,144.2651 L82.8418,144.2651 L82.8418,152.3418 L85.3071,152.3418 L85.3071,154.5 L77.9277,154.5 L77.9277,152.3418 L80.3931,152.3418 L80.3931,144.2651 Z " fill="#000000"/><text fill="#000000" font-family="sans-serif" font-size="12" font-style="italic" lengthAdjust="spacing" textLength="8" x="95.5" y="152.5352">X</text><line style="stroke:#A80036;stroke-width:1.5;" x1="67.5" x2="105.5" y1="164" y2="164"/><line style="stroke:#A80036;stroke-width:1.5;" x1="67.5" x2="105.5" y1="172" y2="172"/><!--MD5=[6d5272363bca5e3c1d2e824c31d648e0]
class CompositeX--><rect codeLine="2" fill="#FEFECE" filter="url(#f1ed7ducv2vekr)" height="60.9551" id="CompositeX" style="stroke:#A80036;stroke-width:1.5;" width="159" x="7" y="241"/><ellipse cx="48.1" cy="257" fill="#ADD1B2" rx="11" ry="11" style="stroke:#A80036;stroke-width:1.0;"/><path d="M50.5731,263.1431 Q49.9921,263.4419 49.3529,263.5913 Q48.7138,263.7407 48.0082,263.7407 Q45.5014,263.7407 44.1815,262.0889 Q42.8617,260.437 42.8617,257.3159 Q42.8617,254.1865 44.1815,252.5347 Q45.5014,250.8828 48.0082,250.8828 Q48.7138,250.8828 49.3612,251.0322 Q50.0087,251.1816 50.5731,251.4805 L50.5731,254.2031 Q49.9423,253.6221 49.3488,253.3523 Q48.7553,253.0825 48.1244,253.0825 Q46.7797,253.0825 46.0949,254.1492 Q45.4101,255.2158 45.4101,257.3159 Q45.4101,259.4077 46.0949,260.4744 Q46.7797,261.541 48.1244,261.541 Q48.7553,261.541 49.3488,261.2712 Q49.9423,261.0015 50.5731,260.4204 Z " fill="#000000"/><text fill="#000000" font-family="sans-serif" font-size="12" lengthAdjust="spacing" textLength="69" x="67.9" y="261.5352">CompositeX</text><line style="stroke:#A80036;stroke-width:1.5;" x1="8" x2="165" y1="273" y2="273"/><rect fill="none" height="6" style="stroke:#C82930;stroke-width:1.0;" width="6" x="15" y="281"/><text fill="#000000" font-family="sans-serif" font-size="11" lengthAdjust="spacing" textLength="133" x="27" y="287.6348">elements: Collection&lt;X&gt;</text><line style="stroke:#A80036;stroke-width:1.5;" x1="8" x2="165" y1="293.9551" y2="293.9551"/><!--MD5=[ed6624c6556d5e7b1bd23032162d20b7]
class Client--><rect fill="#FEFECE" filter="url(#f1ed7ducv2vekr)" height="48" id="Client" style="stroke:#A80036;stroke-width:1.5;" width="64" x="54.5" y="7"/><ellipse cx="69.5" cy="23" fill="#ADD1B2" rx="11" ry="11" style="stroke:#A80036;stroke-width:1.0;"/><path d="M71.9731,29.1431 Q71.3921,29.4419 70.7529,29.5913 Q70.1138,29.7407 69.4082,29.7407 Q66.9014,29.7407 65.5815,28.0889 Q64.2617,26.437 64.2617,23.3159 Q64.2617,20.1865 65.5815,18.5347 Q66.9014,16.8828 69.4082,16.8828 Q70.1138,16.8828 70.7612,17.0322 Q71.4087,17.1816 71.9731,17.4805 L71.9731,20.2031 Q71.3423,19.6221 70.7488,19.3523 Q70.1553,19.0825 69.5244,19.0825 Q68.1797,19.0825 67.4949,20.1492 Q66.8101,21.2158 66.8101,23.3159 Q66.8101,25.4077 67.4949,26.4744 Q68.1797,27.541 69.5244,27.541 Q70.1553,27.541 70.7488,27.2712 Q71.3423,27.0015 71.9731,26.4204 Z " fill="#000000"/><text fill="#000000" font-family="sans-serif" font-size="12" lengthAdjust="spacing" textLength="32" x="83.5" y="27.5352">Client</text><line style="stroke:#A80036;stroke-width:1.5;" x1="55.5" x2="117.5" y1="39" y2="39"/><line style="stroke:#A80036;stroke-width:1.5;" x1="55.5" x2="117.5" y1="47" y2="47"/><!--MD5=[b8b0d3413dc01212e69aac246c848b9c]
class SomeX--><rect fill="#FEFECE" filter="url(#f1ed7ducv2vekr)" height="48" id="SomeX" style="stroke:#A80036;stroke-width:1.5;" width="71" x="201" y="247.5"/><ellipse cx="216" cy="263.5" fill="#ADD1B2" rx="11" ry="11" style="stroke:#A80036;stroke-width:1.0;"/><path d="M218.4731,269.6431 Q217.8921,269.9419 217.2529,270.0913 Q216.6138,270.2407 215.9082,270.2407 Q213.4014,270.2407 212.0815,268.5889 Q210.7617,266.937 210.7617,263.8159 Q210.7617,260.6865 212.0815,259.0347 Q213.4014,257.3828 215.9082,257.3828 Q216.6138,257.3828 217.2612,257.5322 Q217.9087,257.6816 218.4731,257.9805 L218.4731,260.7031 Q217.8423,260.1221 217.2488,259.8523 Q216.6553,259.5825 216.0244,259.5825 Q214.6797,259.5825 213.9949,260.6492 Q213.3101,261.7158 213.3101,263.8159 Q213.3101,265.9077 213.9949,266.9744 Q214.6797,268.041 216.0244,268.041 Q216.6553,268.041 217.2488,267.7712 Q217.8423,267.5015 218.4731,266.9204 Z " fill="#000000"/><text fill="#000000" font-family="sans-serif" font-size="12" lengthAdjust="spacing" textLength="39" x="230" y="268.0352">SomeX</text><line style="stroke:#A80036;stroke-width:1.5;" x1="202" x2="271" y1="279.5" y2="279.5"/><line style="stroke:#A80036;stroke-width:1.5;" x1="202" x2="271" y1="287.5" y2="287.5"/><!--MD5=[df6a2f6264c76d55c66f14ec4c8b0003]
link Client to X--><path codeLine="6" d="M86.5,55.14 C86.5,75.49 86.5,105.19 86.5,126.91 " fill="none" id="Client-to-X" style="stroke:#A80036;stroke-width:1.0;"/><polygon fill="#A80036" points="86.5,131.97,90.5,122.97,86.5,126.97,82.5,122.97,86.5,131.97" style="stroke:#A80036;stroke-width:1.0;"/><text fill="#000000" font-family="sans-serif" font-size="13" lengthAdjust="spacing" textLength="22" x="87.5" y="98.5684">use</text><!--MD5=[26ad907f4c625b58f2ea3e84ecd7035f]
reverse link X to CompositeX--><path codeLine="7" d="M74.08,200.17 C73.41,213.73 73.76,228.4 75.14,240.81 " fill="none" id="X-backto-CompositeX" style="stroke:#A80036;stroke-width:1.0;stroke-dasharray:7.0,7.0;"/><polygon fill="none" points="67.11,199.49,75.98,180.24,81.05,200.82,67.11,199.49" style="stroke:#A80036;stroke-width:1.0;"/><!--MD5=[26ad907f4c625b58f2ea3e84ecd7035f]
reverse link X to CompositeX--><path codeLine="8" d="M99.2,193.49 C100.46,208.78 100.23,226.33 98.53,240.81 " fill="none" id="X-backto-CompositeX-1" style="stroke:#A80036;stroke-width:1.0;"/><polygon fill="#FFFFFF" points="97.64,180.24,94.3738,186.669,99.052,192.1566,102.3182,185.7276,97.64,180.24" style="stroke:#A80036;stroke-width:1.0;"/><!--MD5=[8ba5b265be20188d8e43162dd30673e7]
reverse link X to SomeX--><path codeLine="9" d="M122.82,184.48 C148.27,203.74 181.89,229.18 205.96,247.39 " fill="none" id="X-backto-SomeX" style="stroke:#A80036;stroke-width:1.0;stroke-dasharray:7.0,7.0;"/><polygon fill="none" points="118.45,189.96,106.73,172.31,126.9,178.79,118.45,189.96" style="stroke:#A80036;stroke-width:1.0;"/><!--MD5=[7e5e7e865c71d38b35b21d4b90efd572]
@startuml
interface X
class CompositeX {
  -elements: Collection<X>
}

Client - -> X: use
CompositeX .up.|> X
CompositeX -up-o X
SomeX .up.|> X
@enduml

PlantUML version 1.2021.10(Mon Aug 30 15:43:48 CEST 2021)
(GPL source distribution)
Java Runtime: OpenJDK Runtime Environment
JVM: OpenJDK 64-Bit Server VM
Default Encoding: UTF-8
Language: de
Country: DE
--></g></svg>