<?xml version="1.0" encoding="UTF-8" standalone="no"?><svg xmlns="http://www.w3.org/2000/svg" xmlns:xlink="http://www.w3.org/1999/xlink" contentScriptType="application/ecmascript" contentStyleType="text/css" height="317px" preserveAspectRatio="none" style="width:400px;height:317px;background:#FFFFFF;" version="1.1" viewBox="0 0 400 317" width="400px" zoomAndPan="magnify"><defs><filter height="300%" id="f12hqkvnijzhq6" width="300%" x="-1" y="-1"><feGaussianBlur result="blurOut" stdDeviation="2.0"/><feColorMatrix in="blurOut" result="blurOut2" type="matrix" values="0 0 0 0 0 0 0 0 0 0 0 0 0 0 0 0 0 0 .4 0"/><feOffset dx="4.0" dy="4.0" in="blurOut2" result="blurOut3"/><feBlend in="SourceGraphic" in2="blurOut3" mode="normal"/></filter></defs><g><!--MD5=[4e13963c9dc916a21a8436ef39422b32]
class Component--><rect codeLine="3" fill="#FEFECE" filter="url(#f12hqkvnijzhq6)" height="52.9551" id="Component" style="stroke:#A80036;stroke-width:1.5;" width="98" x="65.5" y="116"/><ellipse cx="80.5" cy="132" fill="#B4A7E5" rx="11" ry="11" style="stroke:#A80036;stroke-width:1.0;"/><path d="M76.9277,128.2651 L76.9277,126.1069 L84.3071,126.1069 L84.3071,128.2651 L81.8418,128.2651 L81.8418,136.3418 L84.3071,136.3418 L84.3071,138.5 L76.9277,138.5 L76.9277,136.3418 L79.3931,136.3418 L79.3931,128.2651 Z " fill="#000000"/><text fill="#000000" font-family="sans-serif" font-size="12" font-style="italic" lengthAdjust="spacing" textLength="66" x="94.5" y="136.5352">Component</text><line style="stroke:#A80036;stroke-width:1.5;" x1="66.5" x2="162.5" y1="148" y2="148"/><ellipse cx="76.5" cy="159" fill="#84BE84" rx="3" ry="3" style="stroke:#038048;stroke-width:1.0;"/><text fill="#000000" font-family="sans-serif" font-size="11" lengthAdjust="spacing" textLength="27" x="85.5" y="162.6348">run()</text><!--MD5=[70cb38f525711dc951d48115ac066537]
class CompositeComponent--><rect codeLine="5" fill="#FEFECE" filter="url(#f12hqkvnijzhq6)" height="73.9102" id="CompositeComponent" style="stroke:#A80036;stroke-width:1.5;" width="215" x="7" y="230"/><ellipse cx="47.2" cy="246" fill="#ADD1B2" rx="11" ry="11" style="stroke:#A80036;stroke-width:1.0;"/><path d="M49.6731,252.1431 Q49.0921,252.4419 48.4529,252.5913 Q47.8138,252.7407 47.1082,252.7407 Q44.6014,252.7407 43.2815,251.0889 Q41.9617,249.437 41.9617,246.3159 Q41.9617,243.1865 43.2815,241.5347 Q44.6014,239.8828 47.1082,239.8828 Q47.8138,239.8828 48.4612,240.0322 Q49.1087,240.1816 49.6731,240.4805 L49.6731,243.2031 Q49.0423,242.6221 48.4488,242.3523 Q47.8553,242.0825 47.2244,242.0825 Q45.8797,242.0825 45.1949,243.1492 Q44.5101,244.2158 44.5101,246.3159 Q44.5101,248.4077 45.1949,249.4744 Q45.8797,250.541 47.2244,250.541 Q47.8553,250.541 48.4488,250.2712 Q49.0423,250.0015 49.6731,249.4204 Z " fill="#000000"/><text fill="#000000" font-family="sans-serif" font-size="12" lengthAdjust="spacing" textLength="127" x="66.8" y="250.5352">CompositeComponent</text><line style="stroke:#A80036;stroke-width:1.5;" x1="8" x2="221" y1="262" y2="262"/><rect fill="none" height="6" style="stroke:#C82930;stroke-width:1.0;" width="6" x="15" y="270"/><text fill="#000000" font-family="sans-serif" font-size="11" lengthAdjust="spacing" textLength="189" x="27" y="276.6348">elements: Collection&lt;Component&gt;</text><line style="stroke:#A80036;stroke-width:1.5;" x1="8" x2="221" y1="282.9551" y2="282.9551"/><ellipse cx="18" cy="293.9551" fill="#84BE84" rx="3" ry="3" style="stroke:#038048;stroke-width:1.0;"/><text fill="#000000" font-family="sans-serif" font-size="11" lengthAdjust="spacing" textLength="27" x="27" y="297.5898">run()</text><!--MD5=[7f8c79c77805f9e7051039117b4b9313]
class SomeComponent--><rect codeLine="9" fill="#FEFECE" filter="url(#f12hqkvnijzhq6)" height="52.9551" id="SomeComponent" style="stroke:#A80036;stroke-width:1.5;" width="129" x="257" y="240.5"/><ellipse cx="272" cy="256.5" fill="#ADD1B2" rx="11" ry="11" style="stroke:#A80036;stroke-width:1.0;"/><path d="M274.4731,262.6431 Q273.8921,262.9419 273.2529,263.0913 Q272.6138,263.2407 271.9082,263.2407 Q269.4014,263.2407 268.0815,261.5889 Q266.7617,259.937 266.7617,256.8159 Q266.7617,253.6865 268.0815,252.0347 Q269.4014,250.3828 271.9082,250.3828 Q272.6138,250.3828 273.2612,250.5322 Q273.9087,250.6816 274.4731,250.9805 L274.4731,253.7031 Q273.8423,253.1221 273.2488,252.8523 Q272.6553,252.5825 272.0244,252.5825 Q270.6797,252.5825 269.9949,253.6492 Q269.3101,254.7158 269.3101,256.8159 Q269.3101,258.9077 269.9949,259.9744 Q270.6797,261.041 272.0244,261.041 Q272.6553,261.041 273.2488,260.7712 Q273.8423,260.5015 274.4731,259.9204 Z " fill="#000000"/><text fill="#000000" font-family="sans-serif" font-size="12" lengthAdjust="spacing" textLength="97" x="286" y="261.0352">SomeComponent</text><line style="stroke:#A80036;stroke-width:1.5;" x1="258" x2="385" y1="272.5" y2="272.5"/><ellipse cx="268" cy="283.5" fill="#84BE84" rx="3" ry="3" style="stroke:#038048;stroke-width:1.0;"/><text fill="#000000" font-family="sans-serif" font-size="11" lengthAdjust="spacing" textLength="27" x="277" y="287.1348">run()</text><!--MD5=[ed6624c6556d5e7b1bd23032162d20b7]
class Client--><rect fill="#FEFECE" filter="url(#f12hqkvnijzhq6)" height="32" id="Client" style="stroke:#A80036;stroke-width:1.5;" width="64" x="82.5" y="7"/><ellipse cx="97.5" cy="23" fill="#ADD1B2" rx="11" ry="11" style="stroke:#A80036;stroke-width:1.0;"/><path d="M99.9731,29.1431 Q99.3921,29.4419 98.7529,29.5913 Q98.1138,29.7407 97.4082,29.7407 Q94.9014,29.7407 93.5815,28.0889 Q92.2617,26.437 92.2617,23.3159 Q92.2617,20.1865 93.5815,18.5347 Q94.9014,16.8828 97.4082,16.8828 Q98.1138,16.8828 98.7612,17.0322 Q99.4087,17.1816 99.9731,17.4805 L99.9731,20.2031 Q99.3423,19.6221 98.7488,19.3523 Q98.1553,19.0825 97.5244,19.0825 Q96.1797,19.0825 95.4949,20.1492 Q94.8101,21.2158 94.8101,23.3159 Q94.8101,25.4077 95.4949,26.4744 Q96.1797,27.541 97.5244,27.541 Q98.1553,27.541 98.7488,27.2712 Q99.3423,27.0015 99.9731,26.4204 Z " fill="#000000"/><text fill="#000000" font-family="sans-serif" font-size="12" lengthAdjust="spacing" textLength="32" x="111.5" y="27.5352">Client</text><!--MD5=[fa39e0b8b995cfad057d1e097dfd30f9]
link Client to Component--><path codeLine="12" d="M114.5,39.36 C114.5,57.4 114.5,87.79 114.5,110.73 " fill="none" id="Client-to-Component" style="stroke:#A80036;stroke-width:1.0;"/><polygon fill="#A80036" points="114.5,115.8,118.5,106.8,114.5,110.8,110.5,106.8,114.5,115.8" style="stroke:#A80036;stroke-width:1.0;"/><text fill="#000000" font-family="sans-serif" font-size="13" lengthAdjust="spacing" textLength="22" x="115.5" y="82.5684">use</text><!--MD5=[7b3e0dff4d265960291f46aa6b26b730]
reverse link Component to CompositeComponent--><path codeLine="13" d="M102.54,182.37 C101.42,197.51 101.49,214.77 102.74,229.67 " fill="none" id="Component-backto-CompositeComponent" style="stroke:#A80036;stroke-width:1.0;"/><polygon fill="#FFFFFF" points="103.89,169.18,99.2976,174.7397,102.6633,181.1171,107.2557,175.5575,103.89,169.18" style="stroke:#A80036;stroke-width:1.0;"/><!--MD5=[7b3e0dff4d265960291f46aa6b26b730]
reverse link Component to CompositeComponent--><path codeLine="14" d="M127.62,189.45 C128.29,202.74 128.07,217.05 126.95,229.67 " fill="none" id="Component-backto-CompositeComponent-1" style="stroke:#A80036;stroke-width:1.0;stroke-dasharray:7.0,7.0;"/><polygon fill="none" points="120.62,189.74,125.73,169.18,134.56,188.44,120.62,189.74" style="stroke:#A80036;stroke-width:1.0;"/><!--MD5=[56a1f45bab99fe864d3bb6d3ca566a5d]
reverse link Component to SomeComponent--><path codeLine="15" d="M175.14,179.39 C208.14,198.91 248.2,222.62 278.06,240.29 " fill="none" id="Component-backto-SomeComponent" style="stroke:#A80036;stroke-width:1.0;stroke-dasharray:7.0,7.0;"/><polygon fill="none" points="171.29,185.24,157.64,169.03,178.42,173.19,171.29,185.24" style="stroke:#A80036;stroke-width:1.0;"/><!--MD5=[20e81b0c77c48e8c0a93662bf32bb06f]
@startuml
hide empty members

interface Component
Component : +run()
class CompositeComponent {
  -elements: Collection<Component>
  +run()
}
class SomeComponent
SomeComponent : +run()

Client - -> Component: use
Component o- - CompositeComponent
CompositeComponent .up.|> Component
SomeComponent .up.|> Component
@enduml

PlantUML version 1.2021.10(Mon Aug 30 15:43:48 CEST 2021)
(GPL source distribution)
Java Runtime: OpenJDK Runtime Environment
JVM: OpenJDK 64-Bit Server VM
Default Encoding: UTF-8
Language: de
Country: DE
--></g></svg>